<?xml version="1.0" encoding="iso-8859-1"?>
<!-- Uploaded to: SVG Repo, www.svgrepo.com, Generator: SVG Repo Mixer Tools -->
<svg height="800px" width="800px" version="1.1" id="Layer_1" xmlns="http://www.w3.org/2000/svg" xmlns:xlink="http://www.w3.org/1999/xlink" 
	 viewBox="0 0 512 512" xml:space="preserve">
<path style="fill:#FFFFFF;" d="M256,20C125.872,20,20,125.872,20,256s105.872,236,236,236s236-105.872,236-236S386.128,20,256,20z
	 M401.416,375.192h-96.424c0,27.056-21.936,48.992-48.992,48.992s-48.992-21.936-48.992-48.992h-96.424v-23.328
	c27.216,0,41.992-77.768,41.992-151.176s46.408-89.76,76.208-89.76c1.328,0,2.712,0,4.112,0c0-12.76,10.344-23.104,23.104-23.104
	s23.104,10.344,23.104,23.104c1.4,0,2.784,0,4.112,0c29.8,0,76.208,16.344,76.208,89.76s14.776,151.176,41.992,151.176
	C401.416,351.864,401.416,375.192,401.416,375.192z"/>
<path style="fill:#8AD5DD;" d="M256,0C114.616,0,0,114.616,0,256s114.616,256,256,256s256-114.616,256-256S397.384,0,256,0z
	 M256,492C125.872,492,20,386.128,20,256S125.872,20,256,20s236,105.872,236,236S386.128,492,256,492z"/>
<g>
	<path style="fill:#C9C9C9;" d="M207.008,367.192c0,27.056,21.936,48.992,48.992,48.992s48.992-21.936,48.992-48.992H256H207.008z"
		/>
	<path style="fill:#C9C9C9;" d="M279.104,102.928c0-12.76-10.344-23.104-23.104-23.104c-12.76,0-23.104,10.344-23.104,23.104H256
		C256,102.928,279.104,102.928,279.104,102.928z"/>
</g>
<path style="fill:#DB2B42;" d="M256,102.928h-23.104c-1.4,0-2.784,0-4.112,0c-29.8,0-76.208,16.344-76.208,89.76
	S137.8,343.864,110.584,343.864v23.328h96.424H256V102.928z"/>
<path style="fill:#EA5071;" d="M359.424,192.68c0-73.416-46.408-89.76-76.208-89.76c-1.328,0-2.712,0-4.112,0H256v264.264h48.992
	h96.424v-23.328C374.2,343.856,359.424,266.096,359.424,192.68z"/>
</svg>